<svg version="1.1" xmlns="http://www.w3.org/2000/svg" viewBox="0 0 2109.831604348617 674.6312423389872" width="6329.494813045851" height="2023.8937270169617">
  <!-- svg-source:excalidraw -->
  
  <defs>
    <style class="style-fonts">
      @font-face {
        font-family: "Virgil";
        src: url("https://excalidraw.com/Virgil.woff2");
      }
      @font-face {
        font-family: "Cascadia";
        src: url("https://excalidraw.com/Cascadia.woff2");
      }
      @font-face {
        font-family: "Assistant";
        src: url("https://excalidraw.com/Assistant-Regular.woff2");
      }
    </style>
    
  </defs>
  <rect x="0" y="0" width="2109.831604348617" height="674.6312423389872" fill="#ffffff"></rect><g stroke-linecap="round" transform="translate(10 10) rotate(0 187.25889587402344 98.90458679199219)"><path d="M32 0 C148.87 -4.19, 268.87 -3.4, 342.52 0 C360.96 -2.43, 376.96 10.2, 374.52 32 C370.54 71.62, 372.7 109.89, 374.52 165.81 C374.08 187.91, 361.31 197.34, 342.52 197.81 C229.73 196.47, 114.41 196.42, 32 197.81 C9.16 198.85, -2.76 187.71, 0 165.81 C-2.53 119.17, 1.76 64.87, 0 32 C-1.08 9.85, 13.64 -1.73, 32 0" stroke="none" stroke-width="0" fill="#ffec99"></path><path d="M32 0 C107.5 0.89, 180.44 3.5, 342.52 0 M32 0 C138.38 -0.3, 242.95 -0.06, 342.52 0 M342.52 0 C362.66 -1.05, 375.22 9.18, 374.52 32 M342.52 0 C364.07 1.77, 375.46 12.46, 374.52 32 M374.52 32 C375.49 61.03, 373.19 90.51, 374.52 165.81 M374.52 32 C375.77 75.25, 376.58 118.97, 374.52 165.81 M374.52 165.81 C374.33 185.48, 363.14 195.93, 342.52 197.81 M374.52 165.81 C373.5 187.54, 364.78 196.59, 342.52 197.81 M342.52 197.81 C266.07 198.92, 190.91 197.93, 32 197.81 M342.52 197.81 C223.12 199, 105.42 199.52, 32 197.81 M32 197.81 C10 197.27, 1.29 186.75, 0 165.81 M32 197.81 C9.22 199.62, -2.15 186.79, 0 165.81 M0 165.81 C-0.5 116.26, -2.67 64.89, 0 32 M0 165.81 C0.78 114.93, 0.38 63.01, 0 32 M0 32 C-1.78 9.52, 10.25 1.07, 32 0 M0 32 C-1.93 10.12, 9.19 -1.07, 32 0" stroke="#1e1e1e" stroke-width="2" fill="none"></path></g><g stroke-linecap="round" transform="translate(21.226514100578697 466.8220687550029) rotate(0 187.25889587402344 98.90458679199219)"><path d="M32 0 C120.18 -0.98, 211.28 -4.81, 342.52 0 C366.63 -1.33, 374.18 10, 374.52 32 C375.89 58.93, 371.12 88.52, 374.52 165.81 C373.96 188.39, 360.63 196.85, 342.52 197.81 C269.17 201.35, 202.02 201.58, 32 197.81 C11.09 197.24, -2.7 184.58, 0 165.81 C-2.57 117.01, -3.04 68.11, 0 32 C1.05 11.01, 7.28 -1.34, 32 0" stroke="none" stroke-width="0" fill="#ffc9c9"></path><path d="M32 0 C118.1 1.57, 206.22 1.92, 342.52 0 M32 0 C131.82 -1.13, 232.49 -1.93, 342.52 0 M342.52 0 C363.28 0.83, 374.11 11.44, 374.52 32 M342.52 0 C365.33 1.72, 372.44 10.67, 374.52 32 M374.52 32 C377.18 64.05, 376.36 99.67, 374.52 165.81 M374.52 32 C375.01 78.19, 374.74 124.79, 374.52 165.81 M374.52 165.81 C375.64 186.88, 363.54 199.46, 342.52 197.81 M374.52 165.81 C373.36 185.6, 362.06 196.9, 342.52 197.81 M342.52 197.81 C239.43 200.4, 137.34 200.4, 32 197.81 M342.52 197.81 C274.49 195.92, 207.01 195.23, 32 197.81 M32 197.81 C9.56 197.21, 1.92 187.76, 0 165.81 M32 197.81 C11.1 199.49, -0.59 185.7, 0 165.81 M0 165.81 C-2.11 112.07, -1.44 61.15, 0 32 M0 165.81 C0.34 131.25, 1.71 95.56, 0 32 M0 32 C-1.93 9.89, 10.2 -0.95, 32 0 M0 32 C1.51 12.49, 11.24 -1.23, 32 0" stroke="#1e1e1e" stroke-width="2" fill="none"></path></g><g stroke-linecap="round" transform="translate(948.8892894980381 56.01163783196546) rotate(0 187.25889587402344 98.90458679199219)"><path d="M32 0 C133.63 4.04, 238.74 1.27, 342.52 0 C365.51 -2.58, 375.35 12.83, 374.52 32 C376.71 81.39, 375.32 124.05, 374.52 165.81 C371.64 188.56, 362.71 200.43, 342.52 197.81 C237.67 195.17, 136.03 196.65, 32 197.81 C14.23 196.2, 1.99 190.69, 0 165.81 C0.6 117.12, 3.39 69.98, 0 32 C1.96 9.28, 7.74 -2.06, 32 0" stroke="none" stroke-width="0" fill="#d0bfff"></path><path d="M32 0 C110.37 1.15, 188.03 0.45, 342.52 0 M32 0 C147.91 -1.74, 264.62 -1.37, 342.52 0 M342.52 0 C365.38 -1.36, 376.25 11.2, 374.52 32 M342.52 0 C363.53 0.17, 372.76 9.11, 374.52 32 M374.52 32 C375.51 69.93, 374.6 105.38, 374.52 165.81 M374.52 32 C374.35 73.12, 373.19 114.49, 374.52 165.81 M374.52 165.81 C374.41 188.65, 362.17 197.65, 342.52 197.81 M374.52 165.81 C373.37 186.59, 363.5 195.8, 342.52 197.81 M342.52 197.81 C255.91 200.76, 168.39 200.3, 32 197.81 M342.52 197.81 C249.9 199.58, 157.14 200.26, 32 197.81 M32 197.81 C11.29 199.48, -0.2 186.87, 0 165.81 M32 197.81 C11.89 196.87, 2.17 187.55, 0 165.81 M0 165.81 C-0.2 111.09, 0.87 58.84, 0 32 M0 165.81 C0.52 128.7, -0.39 92.12, 0 32 M0 32 C-1.64 10.13, 9.87 0.77, 32 0 M0 32 C1.85 11.39, 12.64 -2.23, 32 0" stroke="#1e1e1e" stroke-width="2" fill="none"></path></g><g stroke-linecap="round" transform="translate(938.403819313 451.80365657775315) rotate(0 187.25889587402344 98.90458679199219)"><path d="M32 0 C144.42 2.97, 255.69 4.19, 342.52 0 C366.59 -1.03, 374.41 9.06, 374.52 32 C377.45 66.76, 376.59 106.3, 374.52 165.81 C377.51 189.51, 361.81 195.72, 342.52 197.81 C224.99 193.7, 102.49 197.69, 32 197.81 C10.83 196.32, -3.04 186.61, 0 165.81 C-1.44 133.59, 1.82 104.33, 0 32 C-0.98 13.21, 8.91 0.91, 32 0" stroke="none" stroke-width="0" fill="#b2f2bb"></path><path d="M32 0 C122.31 -2.79, 214.18 -1.25, 342.52 0 M32 0 C100.46 -0.28, 168.01 0.24, 342.52 0 M342.52 0 C363.96 1.81, 375.97 10.79, 374.52 32 M342.52 0 C365.38 -1.7, 375.53 8.5, 374.52 32 M374.52 32 C371.26 83.54, 371.79 134.93, 374.52 165.81 M374.52 32 C376.68 69.62, 376.1 106.23, 374.52 165.81 M374.52 165.81 C373.06 188.75, 364.41 198.24, 342.52 197.81 M374.52 165.81 C373.81 185.35, 363.51 197.06, 342.52 197.81 M342.52 197.81 C236.46 199.72, 131.28 198.05, 32 197.81 M342.52 197.81 C224.98 196.08, 107.88 196.29, 32 197.81 M32 197.81 C12.55 196.51, -1.92 188.34, 0 165.81 M32 197.81 C9.28 199.28, -1.94 187.34, 0 165.81 M0 165.81 C-2.32 114.04, -0.54 62.33, 0 32 M0 165.81 C-2.01 121.3, -1.38 75.09, 0 32 M0 32 C1.9 11.87, 11.66 -1.77, 32 0 M0 32 C-1.8 11.59, 8.59 0.76, 32 0" stroke="#1e1e1e" stroke-width="2" fill="none"></path></g><g stroke-linecap="round" transform="translate(1722.8875498428224 445.8820026365899) rotate(0 187.25889587402344 98.90458679199219)"><path d="M32 0 C135.36 3.24, 233.76 2.15, 342.52 0 C363.53 -0.3, 373.79 10.18, 374.52 32 C373.73 72.21, 376.44 110.47, 374.52 165.81 C371.46 188.05, 362.98 195.43, 342.52 197.81 C240.73 198.11, 138.52 195.37, 32 197.81 C9.73 196.79, 0.37 184.5, 0 165.81 C-4.92 129.19, -0.36 85.15, 0 32 C2.43 7.57, 12.49 1.22, 32 0" stroke="none" stroke-width="0" fill="#ffd8a8"></path><path d="M32 0 C126.81 2.19, 224.39 2.91, 342.52 0 M32 0 C114.72 -0.58, 197.95 -0.72, 342.52 0 M342.52 0 C363.85 -0.41, 375.66 11.52, 374.52 32 M342.52 0 C363.74 2.06, 375.8 9.71, 374.52 32 M374.52 32 C373.7 77.19, 376.36 121.76, 374.52 165.81 M374.52 32 C374.63 79.83, 374.22 127.89, 374.52 165.81 M374.52 165.81 C373.96 185.64, 363.75 198.15, 342.52 197.81 M374.52 165.81 C374.3 186.29, 362.68 197.08, 342.52 197.81 M342.52 197.81 C229.68 195.25, 117.75 195.62, 32 197.81 M342.52 197.81 C250.75 199.79, 158.15 199.42, 32 197.81 M32 197.81 C10.11 196.27, 1.12 187.65, 0 165.81 M32 197.81 C10.09 195.96, 0.35 186.78, 0 165.81 M0 165.81 C-0.31 126.38, -0.27 86.13, 0 32 M0 165.81 C-0.84 137.24, -0.87 108.96, 0 32 M0 32 C1.18 11.85, 9.71 -0.4, 32 0 M0 32 C0.67 11.46, 8.78 1.74, 32 0" stroke="#1e1e1e" stroke-width="2" fill="none"></path></g><g stroke-linecap="round" transform="translate(1725.3138126005701 52.88175931954902) rotate(0 187.25889587402344 98.90458679199219)"><path d="M32 0 C107.43 -2.42, 179.24 1.02, 342.52 0 C361.6 3.28, 371.23 8.38, 374.52 32 C375.53 77.08, 374.28 116.86, 374.52 165.81 C371.88 186.15, 364.06 194.39, 342.52 197.81 C246.69 199.09, 154.31 198.01, 32 197.81 C12.02 199.87, -2.87 186.85, 0 165.81 C-3.68 118.9, -1.64 61.94, 0 32 C1 11.92, 11.13 -3.13, 32 0" stroke="none" stroke-width="0" fill="#eaddd7"></path><path d="M32 0 C143.07 2.88, 253.86 0.85, 342.52 0 M32 0 C129.14 0.83, 227.08 1.46, 342.52 0 M342.52 0 C365.57 -1.12, 373.23 9.05, 374.52 32 M342.52 0 C362.13 -1.51, 375.9 11.62, 374.52 32 M374.52 32 C374.36 73.85, 372.06 111.91, 374.52 165.81 M374.52 32 C372.87 74.65, 373.75 118.49, 374.52 165.81 M374.52 165.81 C375.22 185.5, 362.29 197.65, 342.52 197.81 M374.52 165.81 C376.6 189.01, 363.9 196.41, 342.52 197.81 M342.52 197.81 C255.94 197.4, 167.8 196.14, 32 197.81 M342.52 197.81 C265.75 199.45, 189.02 199.68, 32 197.81 M32 197.81 C9.4 197.96, 0.97 185.32, 0 165.81 M32 197.81 C11.04 196.75, -0.94 188.21, 0 165.81 M0 165.81 C-1.16 127.9, -0.14 94.53, 0 32 M0 165.81 C-1.87 116.06, -0.81 66.23, 0 32 M0 32 C1.88 11.92, 11.36 1.97, 32 0 M0 32 C-0.69 10.18, 10.24 -2.27, 32 0" stroke="#1e1e1e" stroke-width="2" fill="none"></path></g><g transform="translate(121.58057426164532 92.56892426749732) rotate(0 71.033203125 20.700000000000003)"><text x="71.033203125" y="0" font-family="Helvetica, Segoe UI Emoji" font-size="36px" fill="#1e1e1e" text-anchor="middle" style="white-space: pre;" direction="ltr" dominant-baseline="text-before-edge">Postman</text></g><g transform="translate(116.81099461222402 549.3909930225002) rotate(0 87.029296875 20.69999999999999)"><text x="87.029296875" y="0" font-family="Helvetica, Segoe UI Emoji" font-size="36px" fill="#1e1e1e" text-anchor="middle" style="white-space: pre;" direction="ltr" dominant-baseline="text-before-edge">API Server</text></g><g transform="translate(1060.4698637596834 138.58056209946278) rotate(0 71.033203125 20.700000000000003)"><text x="71.033203125" y="0" font-family="Helvetica, Segoe UI Emoji" font-size="36px" fill="#1e1e1e" text-anchor="middle" style="white-space: pre;" direction="ltr" dominant-baseline="text-before-edge">Postgres</text></g><g transform="translate(1074.9892763871449 533.6339978599908) rotate(0 46.0283203125 20.69999999999999)"><text x="46.0283203125" y="0" font-family="Helvetica, Segoe UI Emoji" font-size="36px" fill="#1e1e1e" text-anchor="middle" style="white-space: pre;" direction="ltr" dominant-baseline="text-before-edge">Kafka</text></g><g transform="translate(1834.9480070103245 513.4106392507417) rotate(0 70.03125 41.400000000000006)"><text x="70.03125" y="0" font-family="Helvetica, Segoe UI Emoji" font-size="36px" fill="#1e1e1e" text-anchor="middle" style="white-space: pre;" direction="ltr" dominant-baseline="text-before-edge">Image</text><text x="70.03125" y="41.4" font-family="Helvetica, Segoe UI Emoji" font-size="36px" fill="#1e1e1e" text-anchor="middle" style="white-space: pre;" direction="ltr" dominant-baseline="text-before-edge">Analyser</text></g><g transform="translate(1799.9783170768833 121.8694267610665) rotate(0 102.041015625 41.4)"><text x="102.041015625" y="0" font-family="Helvetica, Segoe UI Emoji" font-size="36px" fill="#1e1e1e" text-anchor="middle" style="white-space: pre;" direction="ltr" dominant-baseline="text-before-edge">${pwd}/</text><text x="102.041015625" y="41.4" font-family="Helvetica, Segoe UI Emoji" font-size="36px" fill="#1e1e1e" text-anchor="middle" style="white-space: pre;" direction="ltr" dominant-baseline="text-before-edge">Compressed</text></g><g mask="url(#mask-YWNphAn4hBq_NWiR19Xee)" stroke-linecap="round"><g transform="translate(212.12531386097248 218.06850535258855) rotate(0 -0.7074131842233555 116.3590403938116)"><path d="M0.77 0.54 C0.32 39.19, -1.77 194.42, -2.06 233.06 M-0.28 -0.22 C-0.4 38.56, 0.51 192.17, 0.31 231.12" stroke="#1e1e1e" stroke-width="2" fill="none"></path></g><g transform="translate(212.12531386097248 218.06850535258855) rotate(0 -0.7074131842233555 116.3590403938116)"><path d="M-8.27 207.64 C-4.09 214.84, -1.37 224.99, 0.31 231.12 M-8.27 207.64 C-6.01 213.38, -3.55 219.38, 0.31 231.12" stroke="#1e1e1e" stroke-width="2" fill="none"></path></g><g transform="translate(212.12531386097248 218.06850535258855) rotate(0 -0.7074131842233555 116.3590403938116)"><path d="M8.84 207.62 C6.95 214.93, 3.59 225.1, 0.31 231.12 M8.84 207.62 C6.44 213.46, 4.25 219.46, 0.31 231.12" stroke="#1e1e1e" stroke-width="2" fill="none"></path></g></g><mask id="mask-YWNphAn4hBq_NWiR19Xee"><rect x="0" y="0" fill="#fff" width="313.5401402294192" height="550.7865861402117"></rect><rect x="88.46672880174901" y="318.3275457464001" fill="#000" width="245.90234375" height="32.199999999999996" opacity="1"></rect></mask><g transform="translate(88.46672880174901 318.3275457464002) rotate(0 123.01241040043544 16.164993787929433)"><text x="122.951171875" y="0" font-family="Helvetica, Segoe UI Emoji" font-size="28px" fill="#1e1e1e" text-anchor="middle" style="white-space: pre;" direction="ltr" dominant-baseline="text-before-edge">1. Send JSON Data</text></g><g mask="url(#mask-re7GP9UBuBlmFSundd5ek)" stroke-linecap="round"><g transform="translate(416.1564399439369 570.3157036735565) rotate(0 253.0276647551094 -2.4311673062847206)"><path d="M-0.18 0.5 C84.2 -0.14, 421.66 -3.48, 506.15 -4.35 M-1.74 -0.29 C82.51 -1.25, 420.57 -5.7, 505.26 -6.21" stroke="#1e1e1e" stroke-width="2" fill="none"></path></g><g transform="translate(416.1564399439369 570.3157036735565) rotate(0 253.0276647551094 -2.4311673062847206)"><path d="M481.85 2.58 C489.45 0.25, 496.2 -1.22, 505.26 -6.21 M481.85 2.58 C489.4 0.32, 497.02 -3.83, 505.26 -6.21" stroke="#1e1e1e" stroke-width="2" fill="none"></path></g><g transform="translate(416.1564399439369 570.3157036735565) rotate(0 253.0276647551094 -2.4311673062847206)"><path d="M481.68 -14.52 C489.25 -11.93, 496.05 -8.48, 505.26 -6.21 M481.68 -14.52 C489.17 -11.48, 496.84 -10.32, 505.26 -6.21" stroke="#1e1e1e" stroke-width="2" fill="none"></path></g></g><mask id="mask-re7GP9UBuBlmFSundd5ek"><rect x="0" y="0" fill="#fff" width="1022.2117694541557" height="675.1780382861259"></rect><rect x="570.3774640740464" y="535.6845363672719" fill="#000" width="197.61328125" height="64.39999999999999" opacity="1"></rect></mask><g transform="translate(570.3774640740462 535.6845363672719) rotate(0 97.98641126923269 31.773561683371696)"><text x="98.806640625" y="0" font-family="Helvetica, Segoe UI Emoji" font-size="28px" fill="#1e1e1e" text-anchor="middle" style="white-space: pre;" direction="ltr" dominant-baseline="text-before-edge">2.2. Produces a</text><text x="98.806640625" y="32.199999999999996" font-family="Helvetica, Segoe UI Emoji" font-size="28px" fill="#1e1e1e" text-anchor="middle" style="white-space: pre;" direction="ltr" dominant-baseline="text-before-edge">msg: uID &amp; pID </text></g><g mask="url(#mask-PCspuQBBdjU8u5d0tULqH)" stroke-linecap="round"><g transform="translate(399.30387253020194 465.82555717614287) rotate(0 269.23999227854586 -151.5448211092998)"><path d="M0.57 -0.8 C90.4 -51.36, 449.7 -253.75, 539.54 -304.2 M-0.58 1.4 C89.13 -48.98, 449.14 -252.61, 539.14 -303.24" stroke="#1e1e1e" stroke-width="2" fill="none"></path></g><g transform="translate(399.30387253020194 465.82555717614287) rotate(0 269.23999227854586 -151.5448211092998)"><path d="M522.88 -284.25 C527.33 -289.16, 532.46 -295.66, 539.14 -303.24 M522.88 -284.25 C528.19 -289.76, 531.88 -294.87, 539.14 -303.24" stroke="#1e1e1e" stroke-width="2" fill="none"></path></g><g transform="translate(399.30387253020194 465.82555717614287) rotate(0 269.23999227854586 -151.5448211092998)"><path d="M514.48 -299.14 C521.74 -298.92, 529.78 -300.25, 539.14 -303.24 M514.48 -299.14 C522.02 -300.72, 527.95 -301.86, 539.14 -303.24" stroke="#1e1e1e" stroke-width="2" fill="none"></path></g></g><mask id="mask-PCspuQBBdjU8u5d0tULqH"><rect x="0" y="0" fill="#fff" width="1037.7838570872937" height="868.9151993947424"></rect><rect x="538.5926929337477" y="298.18073606684305" fill="#000" width="259.90234375" height="32.199999999999996" opacity="1"></rect></mask><g transform="translate(538.5926929337479 298.1807360668431) rotate(0 130.18707799040715 16.244096817290398)"><text x="129.951171875" y="0" font-family="Helvetica, Segoe UI Emoji" font-size="28px" fill="#1e1e1e" text-anchor="middle" style="white-space: pre;" direction="ltr" dominant-baseline="text-before-edge">2.1 Adds JSON Data</text></g><g mask="url(#mask-oZdEmtdQ57RODjHfGmxKK)" stroke-linecap="round"><g transform="translate(1338.0109532501983 560.6427126958505) rotate(0 182.68609746694074 -2.337161879858172)"><path d="M0.76 0.26 C61.75 -0.68, 305.28 -4.8, 366.02 -5.43 M-0.29 -0.66 C60.58 -1.48, 304.64 -3.52, 365.41 -4.29" stroke="#1e1e1e" stroke-width="2" fill="none"></path></g><g transform="translate(1338.0109532501983 560.6427126958505) rotate(0 182.68609746694074 -2.337161879858172)"><path d="M342.01 4.5 C349.62 2.73, 355.13 -1.34, 365.41 -4.29 M342.01 4.5 C352.16 2.16, 361.1 -2.41, 365.41 -4.29" stroke="#1e1e1e" stroke-width="2" fill="none"></path></g><g transform="translate(1338.0109532501983 560.6427126958505) rotate(0 182.68609746694074 -2.337161879858172)"><path d="M341.83 -12.6 C349.53 -9.11, 355.09 -7.92, 365.41 -4.29 M341.83 -12.6 C352.16 -8.18, 361.16 -5.98, 365.41 -4.29" stroke="#1e1e1e" stroke-width="2" fill="none"></path></g></g><mask id="mask-oZdEmtdQ57RODjHfGmxKK"><rect x="0" y="0" fill="#fff" width="1803.3831481840798" height="665.3170364555668"></rect><rect x="1425.780058529639" y="526.1055508159924" fill="#000" width="189.833984375" height="64.39999999999999" opacity="1"></rect></mask><g transform="translate(1425.780058529639 526.1055508159923) rotate(0 95.09420196958808 31.94917112402618)"><text x="94.9169921875" y="0" font-family="Helvetica, Segoe UI Emoji" font-size="28px" fill="#1e1e1e" text-anchor="middle" style="white-space: pre;" direction="ltr" dominant-baseline="text-before-edge">3. Consumes a</text><text x="94.9169921875" y="32.199999999999996" font-family="Helvetica, Segoe UI Emoji" font-size="28px" fill="#1e1e1e" text-anchor="middle" style="white-space: pre;" direction="ltr" dominant-baseline="text-before-edge">msg: uID &amp; pID</text></g><g mask="url(#mask-7dB6pHNeHeKpkCzUpYjIJ)" stroke-linecap="round"><g transform="translate(1894.2387735816183 432.10159195457993) rotate(0 0.4599966405680789 -83.62177978438399)"><path d="M0.18 -0.03 C0.14 -28.05, 0.82 -140.52, 0.82 -168.25 M-1.19 -1.08 C-1.48 -28.98, -0.82 -139.36, -0.18 -167.24" stroke="#1e1e1e" stroke-width="2" fill="none"></path></g><g transform="translate(1894.2387735816183 432.10159195457993) rotate(0 0.4599966405680789 -83.62177978438399)"><path d="M8.06 -143.64 C4.86 -152.92, 0.03 -163.12, -0.18 -167.24 M8.06 -143.64 C4.1 -152.52, 1.29 -161.19, -0.18 -167.24" stroke="#1e1e1e" stroke-width="2" fill="none"></path></g><g transform="translate(1894.2387735816183 432.10159195457993) rotate(0 0.4599966405680789 -83.62177978438399)"><path d="M-9.04 -143.87 C-5.63 -153.08, -3.85 -163.2, -0.18 -167.24 M-9.04 -143.87 C-6.73 -152.82, -3.28 -161.4, -0.18 -167.24" stroke="#1e1e1e" stroke-width="2" fill="none"></path></g></g><mask id="mask-7dB6pHNeHeKpkCzUpYjIJ"><rect x="0" y="0" fill="#fff" width="1995.1587668627544" height="699.3451515233479"></rect><rect x="1802.0991608471859" y="332.3798121701959" fill="#000" width="185.19921875" height="32.199999999999996" opacity="1"></rect></mask><g transform="translate(1802.0991608471868 332.3798121701959) rotate(0 91.91858616254444 15.582910557463762)"><text x="92.599609375" y="0" font-family="Helvetica, Segoe UI Emoji" font-size="28px" fill="#1e1e1e" text-anchor="middle" style="white-space: pre;" direction="ltr" dominant-baseline="text-before-edge">4.1 Stores files</text></g><g mask="url(#mask-mGr_Ndwc8HOiicGFumxuM)" stroke-linecap="round"><g transform="translate(1701.5184091952933 440.24701484250716) rotate(0 -181.54470635963435 -99.0640279313221)"><path d="M0.24 0.3 C-60.23 -32.62, -302.41 -165.11, -363.05 -198.05 M-1.09 -0.59 C-61.7 -33.25, -303.39 -163.36, -363.97 -196.47" stroke="#1e1e1e" stroke-width="2" fill="none"></path></g><g transform="translate(1701.5184091952933 440.24701484250716) rotate(0 -181.54470635963435 -99.0640279313221)"><path d="M-339.24 -192.79 C-345.73 -193.71, -353.1 -195.59, -363.97 -196.47 M-339.24 -192.79 C-349.03 -193.71, -357.66 -196.26, -363.97 -196.47" stroke="#1e1e1e" stroke-width="2" fill="none"></path></g><g transform="translate(1701.5184091952933 440.24701484250716) rotate(0 -181.54470635963435 -99.0640279313221)"><path d="M-347.39 -177.76 C-351.5 -182.95, -356.56 -189.09, -363.97 -196.47 M-347.39 -177.76 C-354.06 -184.2, -359.68 -192.29, -363.97 -196.47" stroke="#1e1e1e" stroke-width="2" fill="none"></path></g></g><mask id="mask-mGr_Ndwc8HOiicGFumxuM"><rect x="0" y="0" fill="#fff" width="2164.607821914562" height="738.3750707051513"></rect><rect x="1440.5879606481585" y="292.88298691118507" fill="#000" width="158.771484375" height="96.6" opacity="1"></rect></mask><g transform="translate(1440.5879606481594 292.88298691118507) rotate(0 79.0661724590509 48.48982394523918)"><text x="79.3857421875" y="0" font-family="Helvetica, Segoe UI Emoji" font-size="28px" fill="#1e1e1e" text-anchor="middle" style="white-space: pre;" direction="ltr" dominant-baseline="text-before-edge">4.2 Updates </text><text x="79.3857421875" y="32.199999999999996" font-family="Helvetica, Segoe UI Emoji" font-size="28px" fill="#1e1e1e" text-anchor="middle" style="white-space: pre;" direction="ltr" dominant-baseline="text-before-edge">Compressed</text><text x="79.3857421875" y="64.39999999999999" font-family="Helvetica, Segoe UI Emoji" font-size="28px" fill="#1e1e1e" text-anchor="middle" style="white-space: pre;" direction="ltr" dominant-baseline="text-before-edge">Image Array</text></g></svg>